<?xml version="1.0" standalone="no"?>
<!DOCTYPE svg PUBLIC "-//W3C//DTD SVG 1.1//EN" "http://www.w3.org/Graphics/SVG/1.1/DTD/svg11.dtd">
<svg xmlns="http://www.w3.org/2000/svg" id="Layer_1" version="1.1" viewBox="0 0 1231.36 777.05" width="1231.3599853515625" height="777.0499877929688">
  <!-- Generator: Adobe Illustrator 29.8.2, SVG Export Plug-In . SVG Version: 2.1.1 Build 3)  -->
  <defs>
    <style>
      .st0, .st1 {
        stroke: #254590;
      }

      .st0, .st1, .st2, .st3 {
        fill: none;
        stroke-linecap: round;
        stroke-linejoin: round;
      }

      .st0, .st2 {
        stroke-width: 3px;
      }

      .st1, .st3 {
        stroke-width: 6px;
      }

      .st2, .st3 {
        stroke: #2b79f5;
      }

      .st4 {
        fill: #254590;
      }
    </style>
  </defs>
  <g>
    <g>
      <path class="st4" d="M64.66,515.29h-10.07c-2.7,0-5.47-.06-8.29-.19-1.36-.06-2.47-1.14-2.56-2.5l-10.2-144.34c0-.06,0-.13,0-.19v-16.05c0-1.4,1.07-2.56,2.46-2.68l35.14-2.93c1.48-.12,2.79.98,2.9,2.47l5.04,65.23c.13,1.69,1.78,2.83,3.41,2.38,5.3-1.45,9.74-3.11,13.32-4.99,4.27-2.24,7.48-5.34,9.61-9.31,2.14-3.97,3.61-9.41,4.42-16.33.81-6.92,1.22-15.87,1.22-26.86v-6.99c0-1.4,1.07-2.56,2.47-2.68l35.56-2.92c1.55-.13,2.9,1.1,2.91,2.66.21,21.65-1.64,39.05-5.53,52.2-4.07,13.73-11.29,23.96-21.67,30.68-9.91,6.41-23.53,10.87-40.86,13.39-1.39.2-2.41,1.43-2.31,2.84l1.79,25.85c.1,1.4,1.27,2.5,2.67,2.51,15.44.06,28.95-1.17,40.54-3.68,12.21-2.64,22.38-7.48,30.52-14.5,8.14-7.02,14.45-16.89,18.93-29.6,4.47-12.72,7.12-28.94,7.94-48.68.2-3.86.35-7.27.46-10.23.1-2.95.15-5.75.15-8.4,0-2.03-.05-4.01-.15-5.95-.06-1.13-.1-2.27-.13-3.44-.03-1.41,1.07-2.6,2.48-2.71l36.95-2.95c1.47-.12,2.79.98,2.9,2.46.25,3.16.37,6.29.37,9.39v11.75c0,34.79-5.45,62.88-16.33,84.24-10.89,21.37-28.23,36.89-52.04,46.55-23.81,9.67-55.15,14.5-94.01,14.5Z"/>
      <path class="st4" d="M287.47,449.25v-61.29c0-1.48-1.2-2.69-2.69-2.69h-26.07c-1.48,0-2.69-1.2-2.69-2.69v-32.78c0-1.48,1.2-2.69,2.69-2.69h68.5c1.48,0,2.69,1.2,2.69,2.69v97.05c0,1.42-1.1,2.59-2.51,2.68l-37.05,2.4c-1.55.1-2.86-1.13-2.86-2.68Z"/>
      <path class="st4" d="M358.29,508.03v-32.78c0-1.48,1.2-2.69,2.69-2.69h77.35c1.48,0,2.69-1.2,2.69-2.69v-65.68c0-5.9-1.58-10.53-4.73-13.89-3.16-3.36-7.48-5.04-12.97-5.04h-55c-1.48,0-2.69-1.2-2.69-2.69v-32.78c0-1.48,1.2-2.69,2.69-2.69h63.24c16.28,0,28.89,4.58,37.85,13.74,8.95,9.16,13.43,21.87,13.43,38.15v70.87c0,1.48,1.2,2.69,2.69,2.69h18.73c1.6,0,2.85,1.39,2.67,2.98l-3.67,32.78c-.15,1.36-1.3,2.39-2.67,2.39h-139.59c-1.48,0-2.69-1.2-2.69-2.69Z"/>
      <path class="st4" d="M521.36,514.34c.38-12.27.93-24.23,1.65-35.86.06-1.01.69-1.89,1.62-2.29,9.07-3.87,18.23-7.93,27.48-12.17,9.23-4.23,18.37-8.82,27.42-13.79.95-.52,1.5-1.57,1.39-2.65l-6.28-59.91c-.14-1.37-1.3-2.41-2.67-2.41h-32.44c-1.48,0-2.69-1.2-2.69-2.69v-32.78c0-1.48,1.2-2.69,2.69-2.69h69.06c1.38,0,2.53,1.04,2.67,2.41l15.72,152.48c.12,1.19-.56,2.33-1.66,2.78-5.68,2.32-11.31,4.35-16.9,6.09-5.16,1.61-10.14,2.96-14.95,4.08-1.55.36-3.07-.73-3.25-2.32l-2.56-22.09c-.22-1.89-2.27-2.94-3.94-2.04-9.23,4.99-18.49,9.7-27.8,14.13-10.3,4.9-20.55,9.65-30.76,14.26-.35.16-.73.24-1.11.24h0c-1.52,0-2.74-1.27-2.69-2.78Z"/>
    </g>
    <g>
      <path class="st4" d="M38.3,580.71v-12.32c0-.68-.19-1.22-.56-1.63-.37-.41-.89-.61-1.54-.61h-6.58v-4.38h7.59c1.87,0,3.31.52,4.34,1.57,1.03,1.05,1.54,2.51,1.54,4.38v12.67l-4.79.31Z"/>
      <path class="st4" d="M45.58,582.36c-.09-.75-.19-1.48-.3-2.2-.1-.72-.19-1.45-.26-2.17,1.1-.21,2.12-.41,3.06-.61.95-.2,1.81-.4,2.61-.61l-3.6-11.03-1.16-2.34c.72-.42,1.45-.8,2.19-1.14.74-.34,1.45-.64,2.15-.89.49.58.87,1.23,1.14,1.93.27.7.51,1.4.72,2.1l2.91,9.55c.98-.75,1.67-1.71,2.06-2.9s.59-2.77.59-4.73c0-.75-.03-1.55-.1-2.4-.07-.85-.17-1.72-.32-2.61.75-.19,1.51-.34,2.29-.46.78-.12,1.62-.21,2.5-.28.14.77.23,1.59.28,2.45.05.86.07,1.62.07,2.27,0,2.61-.28,4.82-.84,6.62-.56,1.8-1.48,3.29-2.75,4.48s-2.99,2.18-5.16,2.96c-2.17.78-4.87,1.45-8.08,2.01Z"/>
      <path class="st4" d="M68.57,580.71v-14.56h-3.43v-4.38h8.23v18.62l-4.79.31Z"/>
      <path class="st4" d="M76.1,580.54v-4.38h5.32v-10.01h-4.03v-4.38h8.82v18.76h-10.12Z"/>
      <path class="st4" d="M98.56,580.92c-.49,0-1.05-.03-1.68-.09-.63-.06-1.25-.15-1.85-.26.12-.65.27-1.32.47-2,.2-.68.41-1.38.65-2.1.26.02.51.05.77.07.26.02.47.04.63.04,1.31,0,1.96-.7,1.96-2.1v-8.33h-3.88v-4.38h13.75c1.87,0,3.31.52,4.34,1.57,1.03,1.05,1.54,2.51,1.54,4.38v12.67l-4.79.31v-12.32c0-.68-.19-1.22-.56-1.63-.37-.41-.89-.61-1.54-.61h-4.06v9.13c0,1.98-.46,3.42-1.36,4.31-.91.89-2.37,1.33-4.38,1.33Z"/>
      <path class="st4" d="M121.06,580.71v-14.56h-3.43v-4.38h8.23v18.62l-4.79.31Z"/>
      <path class="st4" d="M139.82,581.31c-1.07-1.19-2.09-2.45-3.04-3.78,1.07-1.35,1.95-2.48,2.62-3.38.68-.9,1.18-1.69,1.5-2.36.33-.68.49-1.35.49-2.03v-3.6h-11.94v-4.38h16.73v6.89c0,1.33-.13,2.5-.4,3.5-.27,1-.67,1.95-1.21,2.85-.54.9-1.2,1.84-2,2.83-.79.99-1.71,2.14-2.76,3.45ZM129.64,585.05v-14.35c.82-.07,1.63-.13,2.45-.19.82-.06,1.62-.1,2.42-.12v14.35l-4.86.31Z"/>
      <path class="st4" d="M153.33,581.59c-.51-.65-.99-1.31-1.43-1.96-.44-.65-.86-1.31-1.26-1.96,1.24-1.17,2.31-2.16,3.22-2.99s1.67-1.57,2.28-2.22c.61-.65,1.06-1.28,1.36-1.89.3-.61.46-1.27.46-2v-2.41h-8.92v-9.28h4.79v4.9h8.92v6.09c0,1.45-.21,2.73-.63,3.85-.42,1.12-1.03,2.18-1.84,3.17-.81.99-1.79,2.02-2.96,3.1-1.17,1.07-2.5,2.28-3.99,3.6Z"/>
      <path class="st4" d="M166.25,580.71v-18.93h10.81c1.87,0,3.31.52,4.34,1.57,1.03,1.05,1.54,2.51,1.54,4.38v12.67l-4.79.31v-12.32c0-.7-.19-1.25-.56-1.65-.37-.4-.89-.59-1.54-.59h-5v14.24l-4.79.31Z"/>
      <path class="st4" d="M186.06,580.64l3.15-14.46-3.46-.73.91-4.2,2.8.53h7.95c2.22,0,3.94.61,5.16,1.82,1.23,1.21,1.84,2.92,1.84,5.11v11.83h-9.52v-4.38h4.72v-7.04c0-.96-.26-1.7-.79-2.24-.53-.54-1.25-.81-2.19-.81h-2.52l-3.04,14.56h-5Z"/>
      <path class="st4" d="M216.7,573.82v-7.66h-3.61v-4.38h8.47v11.72l-4.86.31Z"/>
      <path class="st4" d="M228.71,581.59c-.51-.65-.99-1.31-1.43-1.96-.44-.65-.86-1.31-1.26-1.96,1.24-1.17,2.31-2.16,3.22-2.99s1.67-1.57,2.28-2.22c.61-.65,1.06-1.28,1.36-1.89.3-.61.46-1.27.46-2v-2.41h-8.92v-9.28h4.79v4.9h8.92v6.09c0,1.45-.21,2.73-.63,3.85-.42,1.12-1.03,2.18-1.84,3.17-.81.99-1.79,2.02-2.96,3.1-1.17,1.07-2.5,2.28-3.99,3.6Z"/>
      <path class="st4" d="M252.86,580.71v-12.39c0-.68-.18-1.21-.54-1.59-.36-.38-.86-.58-1.49-.58h-9.62v-4.38h10.57c1.87,0,3.31.52,4.34,1.57,1.03,1.05,1.54,2.51,1.54,4.38v12.67l-4.8.31ZM241.38,580.71v-9.59c.82-.07,1.63-.13,2.45-.19.82-.06,1.62-.1,2.42-.12v9.59l-4.87.31Z"/>
      <path class="st4" d="M260.21,580.54v-4.38h5.32v-10.01h-4.03v-4.38h8.82v18.76h-10.12Z"/>
      <path class="st4" d="M273.68,580.64l3.15-14.46-3.46-.73.91-4.2,2.8.53h7.95c2.22,0,3.94.61,5.16,1.82,1.23,1.21,1.84,2.92,1.84,5.11v11.83h-9.52v-4.38h4.72v-7.04c0-.96-.26-1.7-.79-2.24-.53-.54-1.25-.81-2.19-.81h-2.52l-3.04,14.56h-5Z"/>
      <path class="st4" d="M298.74,581.59c-.51-.65-.99-1.31-1.43-1.96-.44-.65-.86-1.31-1.26-1.96,1.24-1.17,2.31-2.16,3.22-2.99s1.67-1.57,2.28-2.22c.61-.65,1.06-1.28,1.36-1.89.3-.61.46-1.27.46-2v-2.41h-8.92v-9.28h4.79v4.9h8.92v6.09c0,1.45-.21,2.73-.63,3.85-.42,1.12-1.03,2.18-1.84,3.17-.81.99-1.79,2.02-2.96,3.1-1.17,1.07-2.5,2.28-3.99,3.6Z"/>
      <path class="st4" d="M319.97,580.92c-.49,0-1.05-.03-1.68-.09-.63-.06-1.25-.15-1.85-.26.12-.65.27-1.32.47-2,.2-.68.41-1.38.65-2.1.26.02.51.05.77.07.26.02.47.04.63.04,1.31,0,1.96-.7,1.96-2.1v-8.33h-3.88v-4.38h13.75c1.87,0,3.31.52,4.34,1.57,1.03,1.05,1.54,2.51,1.54,4.38v12.67l-4.79.31v-12.32c0-.68-.19-1.22-.56-1.63-.37-.41-.89-.61-1.54-.61h-4.06v9.13c0,1.98-.46,3.42-1.36,4.31-.91.89-2.37,1.33-4.38,1.33Z"/>
      <path class="st4" d="M347.17,580.71v-14.56h-8.47v-4.38h16.66l-.49,4.38h-2.91v14.24l-4.79.31Z"/>
      <path class="st4" d="M357.67,580.64l3.15-14.46-3.46-.73.91-4.2,2.8.53h7.95c2.22,0,3.94.61,5.16,1.82,1.23,1.21,1.84,2.92,1.84,5.11v11.83h-9.52v-4.38h4.72v-7.04c0-.96-.26-1.7-.79-2.24-.53-.54-1.25-.81-2.19-.81h-2.52l-3.04,14.56h-5Z"/>
      <path class="st4" d="M381.82,580.71v-14.56h-3.43v-4.38h8.23v18.62l-4.79.31Z"/>
      <path class="st4" d="M394.03,581.59c-.51-.65-.99-1.31-1.43-1.96-.44-.65-.86-1.31-1.26-1.96,1.24-1.17,2.31-2.16,3.22-2.99s1.67-1.57,2.28-2.22c.61-.65,1.06-1.28,1.36-1.89.3-.61.46-1.27.46-2v-2.41h-8.92v-9.28h4.79v4.9h8.92v6.09c0,1.45-.21,2.73-.63,3.85-.42,1.12-1.03,2.18-1.84,3.17-.81.99-1.79,2.02-2.96,3.1-1.17,1.07-2.5,2.28-3.99,3.6Z"/>
      <path class="st4" d="M415.26,580.92c-.49,0-1.05-.03-1.68-.09-.63-.06-1.25-.15-1.85-.26.12-.65.27-1.32.47-2,.2-.68.41-1.38.65-2.1.26.02.51.05.77.07.26.02.47.04.63.04,1.31,0,1.96-.7,1.96-2.1v-8.33h-3.88v-4.38h13.75c1.87,0,3.31.52,4.34,1.57,1.03,1.05,1.54,2.51,1.54,4.38v12.67l-4.79.31v-12.32c0-.68-.19-1.22-.56-1.63-.37-.41-.89-.61-1.54-.61h-4.06v9.13c0,1.98-.46,3.42-1.36,4.31-.91.89-2.37,1.33-4.38,1.33Z"/>
      <path class="st4" d="M437.73,573.82v-7.66h-3.61v-4.38h8.47v11.72l-4.86.31Z"/>
      <path class="st4" d="M444.73,582.36c-.09-.75-.19-1.48-.3-2.2-.1-.72-.19-1.45-.26-2.17,1.1-.21,2.12-.41,3.06-.61.95-.2,1.81-.4,2.61-.61l-3.6-11.03-1.16-2.34c.72-.42,1.45-.8,2.19-1.14.74-.34,1.45-.64,2.15-.89.49.58.87,1.23,1.14,1.93.27.7.51,1.4.72,2.1l2.91,9.55c.98-.75,1.67-1.71,2.06-2.9s.59-2.77.59-4.73c0-.75-.03-1.55-.1-2.4-.07-.85-.17-1.72-.32-2.61.75-.19,1.51-.34,2.29-.46.78-.12,1.62-.21,2.5-.28.14.77.23,1.59.28,2.45.05.86.07,1.62.07,2.27,0,2.61-.28,4.82-.84,6.62-.56,1.8-1.48,3.29-2.75,4.48s-2.99,2.18-5.16,2.96c-2.17.78-4.87,1.45-8.08,2.01Z"/>
      <path class="st4" d="M467.73,580.71v-14.56h-3.43v-4.38h8.23v18.62l-4.79.31Z"/>
      <path class="st4" d="M475.64,580.54v-4.48h2.45l6.12.38-.04-.35-3.71-3.99c-1.1-1.45-2.11-2.9-3.03-4.36-.92-1.46-1.79-2.92-2.61-4.39.63-.4,1.34-.77,2.13-1.12.79-.35,1.6-.68,2.42-.98.68,1.21,1.41,2.47,2.19,3.76.78,1.29,1.64,2.63,2.57,4.01.79-.35,1.26-.97,1.4-1.85.07-.35.14-.82.21-1.42.07-.59.13-1.24.17-1.94s.08-1.35.11-1.96c.82-.05,1.62-.08,2.42-.1.79-.02,1.59-.04,2.38-.04-.02.63-.06,1.34-.12,2.12-.06.78-.11,1.49-.16,2.12-.09.86-.27,1.66-.52,2.38-.26.72-.68,1.37-1.26,1.94-.58.57-1.43,1.06-2.55,1.45l3.64,4.76v4.06h-14.21Z"/>
      <path class="st4" d="M503.99,581.31c-1.07-1.19-2.09-2.45-3.04-3.78,1.07-1.35,1.95-2.48,2.62-3.38.68-.9,1.18-1.69,1.5-2.36.33-.68.49-1.35.49-2.03v-3.6h-11.94v-4.38h16.73v6.89c0,1.33-.13,2.5-.4,3.5-.27,1-.67,1.95-1.21,2.85-.54.9-1.2,1.84-2,2.83-.79.99-1.71,2.14-2.76,3.45ZM493.8,585.05v-14.35c.82-.07,1.63-.13,2.45-.19.82-.06,1.62-.1,2.42-.12v14.35l-4.86.31Z"/>
      <path class="st4" d="M513.26,580.64l3.15-14.46-3.46-.73.91-4.2,2.8.53h7.95c2.22,0,3.94.61,5.16,1.82,1.23,1.21,1.84,2.92,1.84,5.11v11.83h-9.52v-4.38h4.72v-7.04c0-.96-.26-1.7-.79-2.24-.53-.54-1.25-.81-2.19-.81h-2.52l-3.04,14.56h-5Z"/>
      <path class="st4" d="M553.15,580.71v-12.39c0-.68-.18-1.21-.54-1.59-.36-.38-.86-.58-1.49-.58h-9.62v-4.38h10.57c1.87,0,3.31.52,4.34,1.57,1.03,1.05,1.54,2.51,1.54,4.38v12.67l-4.8.31ZM541.67,580.71v-9.59c.82-.07,1.63-.13,2.45-.19.82-.06,1.62-.1,2.42-.12v9.59l-4.87.31Z"/>
      <path class="st4" d="M564.66,581.59c-.51-.65-.99-1.31-1.43-1.96-.44-.65-.86-1.31-1.26-1.96,1.24-1.17,2.31-2.16,3.22-2.99s1.67-1.57,2.28-2.22c.61-.65,1.06-1.28,1.36-1.89.3-.61.46-1.27.46-2v-2.41h-8.92v-9.28h4.79v4.9h8.92v6.09c0,1.45-.21,2.73-.63,3.85-.42,1.12-1.03,2.18-1.84,3.17-.81.99-1.79,2.02-2.96,3.1-1.17,1.07-2.5,2.28-3.99,3.6Z"/>
      <path class="st4" d="M580.28,573.82v-7.66h-3.61v-4.38h8.47v11.72l-4.86.31Z"/>
      <path class="st4" d="M600.23,580.71v-12.39c0-.68-.18-1.21-.54-1.59-.36-.38-.86-.58-1.49-.58h-9.62v-4.38h10.57c1.87,0,3.31.52,4.34,1.57,1.03,1.05,1.54,2.51,1.54,4.38v12.67l-4.8.31ZM588.75,580.71v-9.59c.82-.07,1.63-.13,2.45-.19.82-.06,1.62-.1,2.42-.12v9.59l-4.87.31Z"/>
      <path class="st4" d="M618.81,581.31c-1.07-1.19-2.09-2.45-3.04-3.78,1.07-1.35,1.95-2.48,2.62-3.38.68-.9,1.18-1.69,1.5-2.36.33-.68.49-1.35.49-2.03v-3.6h-11.94v-4.38h16.73v6.89c0,1.33-.13,2.5-.4,3.5-.27,1-.67,1.95-1.21,2.85-.54.9-1.2,1.84-2,2.83-.79.99-1.71,2.14-2.76,3.45ZM608.63,585.05v-14.35c.82-.07,1.63-.13,2.45-.19.82-.06,1.62-.1,2.42-.12v14.35l-4.86.31Z"/>
    </g>
  </g>
  <g>
    <g>
      <polygon class="st3" points="891.43 576.75 915.85 459.46 741.47 508.3 662.4 743.62 797.71 690.4 891.43 576.75"/>
      <polygon class="st3" points="891.43 576.75 915.85 459.46 741.47 508.3 662.4 743.62 797.71 690.4 891.43 576.75"/>
      <polyline class="st3" points="662.4 743.62 854.74 525.68 918.36 455.82"/>
      <line class="st3" x1="741.47" y1="508.3" x2="854.74" y2="525.68"/>
      <g>
        <line class="st2" x1="777.44" y1="613.03" x2="744.21" y2="711.44"/>
        <line class="st2" x1="792.7" y1="595.84" x2="755" y2="707.47"/>
        <line class="st2" x1="807.94" y1="578.71" x2="765.72" y2="703.72"/>
        <line class="st2" x1="823.26" y1="561.35" x2="776.92" y2="698.57"/>
        <line class="st2" x1="838.49" y1="544.24" x2="787.82" y2="694.29"/>
        <line class="st2" x1="854.74" y1="525.68" x2="799.2" y2="688.59"/>
        <line class="st2" x1="869.06" y1="509.7" x2="815.04" y2="669.66"/>
        <line class="st2" x1="883.96" y1="493.6" x2="831.22" y2="649.76"/>
        <line class="st2" x1="898.98" y1="477.1" x2="847.18" y2="630.5"/>
        <line class="st2" x1="913.66" y1="461.64" x2="863.16" y2="611.18"/>
        <line class="st2" x1="902.99" y1="521.23" x2="879.06" y2="591.74"/>
      </g>
    </g>
    <g>
      <polygon class="st3" points="1191.34 195.34 1201.74 88.37 953.37 224.68 918.36 459.16 1055.82 415.95 1191.34 195.34"/>
      <line class="st3" x1="1201.74" y1="88.37" x2="1055.82" y2="415.95"/>
      <line class="st3" x1="953.37" y1="224.68" x2="1055.82" y2="415.95"/>
      <g>
        <line class="st2" x1="1171.23" y1="156.87" x2="1174.86" y2="222.17"/>
        <line class="st2" x1="1188.04" y1="119.14" x2="1191.94" y2="189.23"/>
        <line class="st2" x1="1196.44" y1="100.27" x2="1197.96" y2="127.6"/>
        <line class="st2" x1="1087.18" y1="345.55" x2="1088.17" y2="363.29"/>
        <line class="st2" x1="1095.59" y1="326.68" x2="1096.84" y2="349.18"/>
        <line class="st2" x1="1103.99" y1="307.81" x2="1105.51" y2="335.07"/>
        <line class="st2" x1="1112.4" y1="288.95" x2="1114.18" y2="320.91"/>
        <line class="st2" x1="1120.8" y1="270.08" x2="1122.85" y2="306.85"/>
        <line class="st2" x1="1129.18" y1="250.83" x2="1131.52" y2="292.73"/>
        <line class="st2" x1="1137.61" y1="232.34" x2="1140.19" y2="278.62"/>
        <line class="st2" x1="1146.01" y1="213.48" x2="1148.85" y2="264.51"/>
        <line class="st2" x1="1154.42" y1="194.61" x2="1157.55" y2="250.83"/>
        <line class="st2" x1="1162.87" y1="175.74" x2="1166.21" y2="236.25"/>
      </g>
    </g>
    <g>
      <line class="st1" x1="951.27" y1="538.36" x2="1064.28" y2="477.51"/>
      <g>
        <line class="st0" x1="1185.99" y1="540.53" x2="951.95" y2="538.36"/>
        <line class="st0" x1="1035.58" y1="596.57" x2="1053.48" y2="596.57"/>
        <line class="st0" x1="1021.55" y1="587.12" x2="1076.49" y2="587.12"/>
        <line class="st0" x1="1008.82" y1="577.67" x2="1098.14" y2="577.67"/>
        <line class="st0" x1="994.48" y1="568.21" x2="1120.75" y2="568.21"/>
        <line class="st0" x1="980.81" y1="558.76" x2="1142.37" y2="558.76"/>
        <line class="st0" x1="967.12" y1="549.3" x2="1165.32" y2="549.3"/>
      </g>
      <polygon class="st1" points="1042.55 601.39 1185.98 540.53 1064.28 477.51 917.02 461.17 951.27 538.36 1042.55 601.39"/>
    </g>
    <g>
      <polygon class="st1" points="861.26 143.79 680.88 33.43 679.53 332.26 774.07 436.58 918.07 457.48 901.21 335.52 861.26 143.79"/>
      <polygon class="st1" points="861.26 143.79 680.88 33.43 679.53 332.26 774.07 436.58 918.07 457.48 901.21 335.52 861.26 143.79"/>
      <line class="st1" x1="861.26" y1="143.79" x2="774.07" y2="436.58"/>
      <g>
        <line class="st0" x1="679.53" y1="311.5" x2="685.93" y2="339.31"/>
        <line class="st0" x1="680.87" y1="33.43" x2="774.07" y2="436.58"/>
        <line class="st0" x1="679.81" y1="271.55" x2="698.6" y2="353.29"/>
        <line class="st0" x1="679.99" y1="231.2" x2="711.26" y2="367.27"/>
        <line class="st0" x1="680.1" y1="190.55" x2="723.89" y2="381.08"/>
        <line class="st0" x1="680.29" y1="150.26" x2="736.6" y2="395.22"/>
        <line class="st0" x1="680.53" y1="110.16" x2="749.26" y2="409.2"/>
        <line class="st0" x1="680.71" y1="69.82" x2="761.88" y2="422.94"/>
      </g>
    </g>
  </g>
</svg>