<?xml version="1.0" standalone="no"?>
<!DOCTYPE svg PUBLIC "-//W3C//DTD SVG 1.1//EN" "http://www.w3.org/Graphics/SVG/1.1/DTD/svg11.dtd">
<svg xmlns="http://www.w3.org/2000/svg" xmlns:xlink="http://www.w3.org/1999/xlink" id="Layer_1" data-name="Layer 1" viewBox="0 0 701.89 427.98" width="701.8900146484375" height="427.9800109863281">
  <defs>
    <style>
      .cls-1 {
        clip-path: url(#clippath-6);
      }

      .cls-2 {
        clip-path: url(#clippath-4);
      }

      .cls-3 {
        fill: url(#linear-gradient-2);
      }

      .cls-4 {
        fill: none;
      }

      .cls-5 {
        fill: url(#linear-gradient-4);
      }

      .cls-6 {
        fill: url(#linear-gradient-3);
      }

      .cls-7 {
        clip-path: url(#clippath-1);
      }

      .cls-8 {
        fill: url(#linear-gradient-5);
      }

      .cls-9 {
        clip-path: url(#clippath-5);
      }

      .cls-10 {
        clip-path: url(#clippath-3);
      }

      .cls-11 {
        fill: url(#linear-gradient-7);
      }

      .cls-12 {
        fill: url(#linear-gradient-6);
      }

      .cls-13 {
        clip-path: url(#clippath-2);
      }

      .cls-14 {
        fill: url(#linear-gradient);
      }

      .cls-15 {
        fill: #292e8a;
        fill-rule: evenodd;
      }

      .cls-16 {
        clip-path: url(#clippath);
      }
    </style>
    <clipPath id="clippath">
      <path class="cls-4" d="M192.63,639.85c-4.36-.13-8.71-.63-12.98-1.59-4.27-.94-8.47-2.27-12.5-4.02-4.04-1.73-7.94-3.87-11.61-6.38-3.68-2.49-7.12-5.36-10.28-8.55-6.31-6.37-11.45-14.02-14.93-22.47-3.5-8.44-5.28-17.66-5.25-26.98l.1-3.5c.08-1.16.18-2.33.27-3.49.13-1.16.31-2.32.46-3.48.18-1.16.42-2.3.63-3.46.09-.58.26-1.14.39-1.72l.41-1.71c.12-.58.31-1.13.47-1.7l.5-1.7c.15-.57.37-1.12.56-1.67l.59-1.67c.18-.56.43-1.1.65-1.65l.67-1.64c.21-.55.48-1.08.73-1.62l.75-1.61c.24-.54.54-1.05.81-1.58l.83-1.57c.27-.53.6-1.02.9-1.54l.92-1.53c.63-1.01,1.31-1.98,1.97-2.98,2.72-3.91,5.83-7.57,9.3-10.88,3.47-3.3,7.26-6.3,11.35-8.85,1.04-.61,2.06-1.25,3.11-1.84,1.07-.55,2.13-1.13,3.22-1.65,1.1-.49,2.18-1.03,3.3-1.47l1.69-.65c.56-.21,1.12-.45,1.69-.63,9.12-3.16,18.89-4.13,28.39-3.34,4.75.42,9.45,1.29,14,2.62,4.54,1.35,8.93,3.12,13.08,5.34,8.29,4.41,15.6,10.49,21.38,17.67,5.79,7.18,10.08,15.42,12.61,24.07,2.53,8.65,3.33,17.66,2.47,26.46-.43,4.4-1.27,8.73-2.49,12.93-1.24,4.19-2.82,8.26-4.8,12.13-1.97,3.87-4.28,7.56-6.94,10.97-2.62,3.44-5.6,6.61-8.81,9.49-3.21,2.89-6.73,5.44-10.41,7.68-3.69,2.24-7.61,4.1-11.66,5.58-4.05,1.5-8.25,2.6-12.52,3.28-3.63.6-7.32.9-11.02.9-.65,0-1.31,0-1.97-.03M184.7,496.23c-5.03.9-9.97,2.24-14.75,4-.61.19-1.19.45-1.78.68l-1.77.7c-.6.22-1.16.52-1.75.76l-1.75.77c-1.16.53-2.28,1.12-3.42,1.69-1.13.58-2.24,1.21-3.36,1.82-4.42,2.54-8.64,5.45-12.52,8.79-3.88,3.34-7.47,7.04-10.67,11.07-.77,1.03-1.58,2.04-2.33,3.08-.72,1.07-1.48,2.11-2.18,3.2l-1.03,1.64c-.33.55-.7,1.09-1.01,1.66l-.95,1.69c-.31.57-.65,1.12-.92,1.71l-.87,1.74c-.28.58-.59,1.16-.84,1.76l-.78,1.79c-.25.6-.54,1.19-.75,1.8l-.7,1.82c-.23.61-.48,1.21-.67,1.83l-.61,1.86c-.19.62-.43,1.23-.58,1.87-.33,1.26-.71,2.52-1.01,3.79-.27,1.28-.58,2.55-.82,3.84-.22,1.29-.45,2.58-.65,3.88l-.46,3.91c-.97,10.47.12,21.24,3.29,31.47,3.16,10.23,8.39,19.9,15.36,28.25,3.49,4.17,7.4,8,11.67,11.43,4.28,3.41,8.91,6.42,13.81,8.94,4.91,2.5,10.08,4.54,15.42,6.02,5.34,1.47,10.84,2.42,16.37,2.81,5.53.36,11.13.21,16.66-.52,5.53-.75,10.99-2.04,16.28-3.86,5.28-1.84,10.37-4.23,15.18-7.07,4.82-2.84,9.31-6.22,13.46-9.96,4-3.64,7.62-7.7,10.84-12.04-.15-2.85-.06-5.7.27-8.5l.35-2.43c.14-.81.31-1.61.47-2.41.17-.8.38-1.59.56-2.38.21-.79.46-1.56.68-2.34.24-.77.53-1.53.79-2.3.27-.76.6-1.5.9-2.25.31-.74.67-1.47,1-2.2.34-.73.74-1.43,1.1-2.14.38-.71.8-1.39,1.2-2.08.41-.68.87-1.34,1.3-2.01.45-.66.92-1.3,1.38-1.95.47-.64.98-1.25,1.47-1.87,1.2-1.46,2.49-2.82,3.84-4.13.31-2.7.49-5.41.52-8.12.15-10.99-1.93-21.97-6.06-31.98-4.12-10.03-10.19-19.12-17.68-26.65-3.75-3.76-7.85-7.14-12.2-10.1-4.36-2.95-8.98-5.48-13.79-7.52s-9.78-3.64-14.85-4.7c-5.06-1.09-10.21-1.69-15.35-1.78-.48,0-.96-.01-1.45-.01-4.66,0-9.3.41-13.87,1.22h.01Z"/>
    </clipPath>
    <linearGradient id="linear-gradient" x1="-598.71" y1="138.51" x2="-598.16" y2="138.51" gradientTransform="translate(-485418.94 112986.82) rotate(-180) scale(811.56)" gradientUnits="userSpaceOnUse">
      <stop offset="0" stop-color="#b1cf39"/>
      <stop offset="0" stop-color="#b1cf39"/>
      <stop offset=".29" stop-color="#b2ce37"/>
      <stop offset=".39" stop-color="#b9cd31"/>
      <stop offset=".46" stop-color="#c5cb28"/>
      <stop offset=".52" stop-color="#d6c71a"/>
      <stop offset=".57" stop-color="#ecc309"/>
      <stop offset=".58" stop-color="#f1c305"/>
      <stop offset="1" stop-color="#c425ff"/>
    </linearGradient>
    <clipPath id="clippath-1">
      <path class="cls-4" d="M467.93,540.49c-4.74,1.41-9.45,2.92-14.13,4.57-4.68,1.63-9.31,3.41-13.92,5.23-2.3.92-4.6,1.87-6.87,2.85-2.29.96-4.55,1.97-6.83,2.97-9.06,4.07-17.97,8.5-26.71,13.27-8.76,4.74-17.32,9.85-25.71,15.28-1.96,1.27-3.91,2.56-5.84,3.86-2.99,2.01-5.96,4.07-8.89,6.17-11.43,8.17-22.44,16.97-32.95,26.36-7.49,6.67-14.69,13.69-21.6,20.98-1.41,1.49-2.8,2.99-4.18,4.5-3.28,3.57-6.49,7.21-9.62,10.92-2.04,2.41-4.06,4.84-6.03,7.31-4.18,5.22-8.21,10.57-12.08,16.03-4.18,5.9-8.18,11.93-11.98,18.08-13.85,22.42-25.08,46.43-33.17,71.4-3.04,9.55-5.83,19.17-7.95,28.94-.55,2.43-1.14,4.86-1.59,7.32-.48,2.45-.97,4.89-1.43,7.34-.25,1.22-.43,2.45-.63,3.69l-.58,3.69-.58,3.69-.29,1.84-.23,1.85c-.57,4.95-1.27,9.86-1.62,14.82-.2,2.48-.42,4.94-.6,7.41-.14,2.48-.25,4.96-.36,7.43l-.17,3.71c-.07,1.23-.05,2.48-.07,3.71l-.06,7.42v1.85c0,.62.03,1.23.04,1.85l.11,3.71.13,3.7.16,3.69.64-3.64.61-3.64c.43-2.42.74-4.85,1.24-7.26l1.34-7.23.33-1.81c.1-.6.21-1.2.34-1.8l.75-3.59c.5-2.4,1-4.78,1.47-7.17l1.64-7.13c1.03-4.76,2.29-9.46,3.48-14.16l.45-1.77.49-1.75.98-3.5.98-3.5c.33-1.16.64-2.33,1.02-3.48,1.46-4.62,2.75-9.27,4.36-13.83,2.99-9.18,6.44-18.18,10.02-27.09,11.25-27.53,25.55-53.62,42.5-77.84,4.13-5.9,8.42-11.7,12.87-17.37.89-1.13,1.78-2.27,2.68-3.39l4.52-5.56c.32-.39.64-.78.97-1.17,1.21-1.44,2.45-2.86,3.67-4.31,1.53-1.84,3.13-3.62,4.71-5.41l2.38-2.69c.29-.32.58-.64.87-.95.52-.56,1.04-1.12,1.56-1.69l2.43-2.64,1.22-1.32,1.24-1.3,4.97-5.18,5.07-5.1,5.15-5.02c8.92-8.55,18.19-16.76,27.76-24.64,3.66-3.02,7.37-5.98,11.12-8.9,1.67-1.3,3.34-2.59,5.03-3.87,7.69-5.84,15.56-11.45,23.56-16.91l3.01-2.04,3.03-2c2.02-1.34,4.07-2.64,6.1-3.97,1.01-.67,2.04-1.32,3.06-1.96l3.08-1.94,6.21-3.81c8.31-5.06,16.78-9.89,25.37-14.55,8.62-4.62,17.34-9.09,26.31-13.18-4.84.98-9.61,2.29-14.37,3.66v-.04Z"/>
    </clipPath>
    <linearGradient id="linear-gradient-2" x1="-598.71" y1="138.28" x2="-598.16" y2="138.28" gradientTransform="translate(-485335.28 112930.88) rotate(-180) scale(811.56)" gradientUnits="userSpaceOnUse">
      <stop offset="0" stop-color="#b1cf39"/>
      <stop offset="0" stop-color="#b1cf39"/>
      <stop offset=".29" stop-color="#b2ce37"/>
      <stop offset=".39" stop-color="#b9cd31"/>
      <stop offset=".46" stop-color="#c5cb28"/>
      <stop offset=".52" stop-color="#d6c71a"/>
      <stop offset=".57" stop-color="#ecc309"/>
      <stop offset=".58" stop-color="#f1c305"/>
      <stop offset="1" stop-color="#c425ff"/>
    </linearGradient>
    <clipPath id="clippath-2">
      <path class="cls-4" d="M192.63,156.85c-4.36-.13-8.71-.63-12.98-1.59-4.27-.94-8.47-2.27-12.5-4.02-4.04-1.73-7.94-3.87-11.61-6.38-3.68-2.49-7.12-5.36-10.28-8.55-6.31-6.37-11.45-14.02-14.93-22.47-3.5-8.44-5.28-17.66-5.25-26.98l.1-3.5c.08-1.16.18-2.33.27-3.49.13-1.16.31-2.32.46-3.48.18-1.16.42-2.3.63-3.46.09-.58.26-1.14.39-1.72l.41-1.71c.12-.58.31-1.13.47-1.7l.5-1.7c.15-.57.37-1.12.56-1.67l.59-1.67c.18-.56.43-1.1.65-1.65l.67-1.64c.21-.55.48-1.08.73-1.62l.75-1.61c.24-.54.54-1.05.81-1.58l.83-1.57c.27-.53.6-1.02.9-1.54l.92-1.53c.63-1.01,1.31-1.98,1.97-2.98,2.72-3.91,5.83-7.57,9.3-10.88,3.47-3.3,7.26-6.3,11.35-8.85,1.04-.61,2.06-1.25,3.11-1.84,1.07-.55,2.13-1.13,3.22-1.65,1.1-.49,2.18-1.03,3.3-1.47l1.69-.65c.56-.21,1.12-.45,1.69-.63,9.12-3.16,18.89-4.13,28.39-3.34,4.75.42,9.45,1.29,14,2.62,4.54,1.35,8.93,3.12,13.08,5.34,8.29,4.41,15.6,10.49,21.38,17.67,5.79,7.18,10.08,15.42,12.61,24.07,2.53,8.65,3.33,17.66,2.47,26.46-.43,4.4-1.27,8.73-2.49,12.93-1.24,4.19-2.82,8.26-4.8,12.13-1.97,3.87-4.28,7.56-6.94,10.97-2.62,3.44-5.6,6.61-8.81,9.49-3.21,2.89-6.73,5.44-10.41,7.68-3.69,2.24-7.61,4.1-11.66,5.58-4.05,1.5-8.25,2.6-12.52,3.28-3.63.6-7.32.9-11.02.9-.65,0-1.31,0-1.97-.03M184.7,13.23c-5.03.9-9.97,2.24-14.75,4-.61.19-1.19.45-1.78.68l-1.77.7c-.6.22-1.16.52-1.75.76l-1.75.77c-1.16.53-2.28,1.12-3.42,1.69-1.13.58-2.24,1.21-3.36,1.82-4.42,2.54-8.64,5.45-12.52,8.79-3.88,3.34-7.47,7.04-10.67,11.07-.77,1.03-1.58,2.04-2.33,3.08-.72,1.07-1.48,2.11-2.18,3.2l-1.03,1.64c-.33.55-.7,1.09-1.01,1.66l-.95,1.69c-.31.57-.65,1.12-.92,1.71l-.87,1.74c-.28.58-.59,1.16-.84,1.76l-.78,1.79c-.25.6-.54,1.19-.75,1.8l-.7,1.82c-.23.61-.48,1.21-.67,1.83l-.61,1.86c-.19.62-.43,1.23-.58,1.87-.33,1.26-.71,2.52-1.01,3.79-.27,1.28-.58,2.55-.82,3.84-.22,1.29-.45,2.58-.65,3.88l-.46,3.91c-.97,10.47.12,21.24,3.29,31.47,3.16,10.23,8.39,19.9,15.36,28.25,3.49,4.17,7.4,8,11.67,11.43,4.28,3.41,8.91,6.42,13.81,8.94,4.91,2.5,10.08,4.54,15.42,6.02,5.34,1.47,10.84,2.42,16.37,2.81,5.53.36,11.13.21,16.66-.52,5.53-.75,10.99-2.04,16.28-3.86,5.28-1.84,10.37-4.23,15.18-7.07,4.82-2.84,9.31-6.22,13.46-9.96,4-3.64,7.62-7.7,10.84-12.04-.15-2.85-.06-5.7.27-8.5l.35-2.43c.14-.81.31-1.61.47-2.41.17-.8.38-1.59.56-2.38.21-.79.46-1.56.68-2.34.24-.77.53-1.53.79-2.3.27-.76.6-1.5.9-2.25.31-.74.67-1.47,1-2.2.34-.73.74-1.43,1.1-2.14.38-.71.8-1.39,1.2-2.08.41-.68.87-1.34,1.3-2.01.45-.66.92-1.3,1.38-1.95.47-.64.98-1.25,1.47-1.87,1.2-1.46,2.49-2.82,3.84-4.13.31-2.7.49-5.41.52-8.12.15-10.99-1.93-21.97-6.06-31.98-4.12-10.03-10.19-19.12-17.68-26.65-3.75-3.76-7.85-7.14-12.2-10.1-4.36-2.95-8.98-5.48-13.79-7.52s-9.78-3.64-14.85-4.7c-5.06-1.09-10.21-1.69-15.35-1.78-.48,0-.96-.01-1.45-.01-4.66,0-9.3.41-13.87,1.22h.01Z"/>
    </clipPath>
    <linearGradient id="linear-gradient-3" x1="-598.99" y1="139.04" x2="-598.44" y2="139.04" gradientTransform="translate(-485645.69 112930.28) rotate(-180) scale(811.56)" xlink:href="#linear-gradient"/>
    <clipPath id="clippath-3">
      <path class="cls-4" d="M323.06,90.64c-3.16,0-6.31.32-9.38.93-3.07.62-6.08,1.47-8.98,2.57-2.91,1.08-5.74,2.38-8.47,3.89-2.72,1.51-5.34,3.25-7.75,5.26-.98.81-1.92,1.67-2.84,2.56-1.35,1.3-2.64,2.67-3.84,4.12-.49.62-1,1.24-1.47,1.87-.46.65-.93,1.29-1.38,1.95-.43.67-.89,1.33-1.3,2.01-.4.69-.83,1.37-1.2,2.08-.37.71-.76,1.41-1.1,2.14-.33.73-.69,1.45-1,2.2-.3.75-.63,1.49-.9,2.25-.26.76-.55,1.52-.79,2.3-.23.78-.48,1.55-.68,2.34-.19.79-.39,1.58-.57,2.38-.16.8-.32,1.6-.47,2.41l-.35,2.43c-.33,2.8-.42,5.65-.28,8.5.2,3.78.81,7.58,1.86,11.28,1.79,6.35,4.85,12.43,9.02,17.75,3.14-3.7,6.35-7.34,9.63-10.92-3-3.13-5.53-6.79-7.38-10.84-2.16-4.71-3.37-9.93-3.54-15.29v-2.01l.08-2.02c.05-.67.14-1.34.2-2.02.08-.67.2-1.34.3-2.01.11-.67.27-1.33.4-2,.14-.67.34-1.32.5-1.98.18-.66.41-1.3.61-1.96.21-.65.48-1.29.71-1.93.25-.64.54-1.26.81-1.9.28-.63.61-1.24.91-1.86.32-.62.68-1.21,1.01-1.81.35-.6.74-1.18,1.11-1.77,1.54-2.32,3.3-4.51,5.31-6.49,2-1.97,4.19-3.78,6.57-5.33,2.38-1.54,4.96-2.79,7.64-3.7,5.39-1.82,11.16-2.22,16.7-1.63,2.78.32,5.5.89,8.13,1.74,2.62.87,5.14,1.97,7.49,3.33,4.35,2.5,8.15,5.82,11.17,9.65,2.94-2.1,5.9-4.15,8.89-6.17-.04-.04-.08-.08-.12-.12-2.42-2.29-5.05-4.33-7.81-6.11-2.78-1.76-5.69-3.27-8.7-4.46-3.02-1.19-6.12-2.11-9.27-2.69-3.1-.59-6.23-.9-9.35-.9h-.13v-.02Z"/>
    </clipPath>
    <linearGradient id="linear-gradient-4" x1="-598.99" y1="138.93" x2="-598.44" y2="138.93" gradientTransform="translate(-485613.69 112879.72) rotate(-180) scale(811.56)" gradientUnits="userSpaceOnUse">
      <stop offset="0" stop-color="#b1cf39"/>
      <stop offset="0" stop-color="#b1cf39"/>
      <stop offset=".29" stop-color="#b2ce37"/>
      <stop offset=".39" stop-color="#b9cd31"/>
      <stop offset=".46" stop-color="#c5cb28"/>
      <stop offset=".52" stop-color="#d6c71a"/>
      <stop offset=".57" stop-color="#ecc309"/>
      <stop offset=".58" stop-color="#f1c305"/>
      <stop offset="1" stop-color="#c425ff"/>
    </linearGradient>
    <clipPath id="clippath-4">
      <path class="cls-4" d="M467.93,57.49c-4.74,1.41-9.45,2.92-14.13,4.57-4.68,1.63-9.31,3.41-13.92,5.23-2.3.92-4.6,1.87-6.87,2.85-2.29.96-4.55,1.97-6.83,2.97-9.06,4.07-17.97,8.5-26.71,13.27-8.76,4.74-17.32,9.85-25.71,15.28-1.96,1.27-3.91,2.56-5.84,3.86-2.99,2.01-5.96,4.07-8.89,6.17-11.43,8.17-22.44,16.97-32.95,26.36-7.49,6.67-14.69,13.69-21.6,20.98-1.41,1.49-2.8,2.99-4.18,4.5-3.28,3.57-6.49,7.21-9.62,10.92-2.04,2.41-4.06,4.84-6.03,7.31-4.18,5.22-8.21,10.57-12.08,16.03-4.18,5.9-8.18,11.93-11.98,18.08-13.85,22.42-25.08,46.43-33.17,71.4-3.04,9.55-5.83,19.17-7.95,28.94-.55,2.43-1.14,4.86-1.59,7.32-.48,2.45-.97,4.89-1.43,7.34-.25,1.22-.43,2.45-.63,3.69l-.58,3.69-.58,3.69-.29,1.84-.23,1.85c-.57,4.95-1.27,9.86-1.62,14.82-.2,2.48-.42,4.94-.6,7.41-.14,2.48-.25,4.96-.36,7.43l-.17,3.71c-.07,1.23-.05,2.48-.07,3.71l-.06,7.42v1.85c0,.62.03,1.23.04,1.85l.11,3.71.13,3.7.16,3.69.64-3.64.61-3.64c.43-2.42.74-4.85,1.24-7.26l1.34-7.23.33-1.81c.1-.6.21-1.2.34-1.8l.75-3.59c.5-2.4,1-4.78,1.47-7.17l1.64-7.13c1.03-4.76,2.29-9.46,3.48-14.16l.45-1.77.49-1.75.98-3.5.98-3.5c.33-1.16.64-2.33,1.02-3.48,1.46-4.62,2.75-9.27,4.36-13.83,2.99-9.18,6.44-18.18,10.02-27.09,11.25-27.53,25.55-53.62,42.5-77.84,4.13-5.9,8.42-11.7,12.87-17.37.89-1.13,1.78-2.27,2.68-3.39l4.52-5.56c.32-.39.64-.78.97-1.17,1.21-1.44,2.45-2.86,3.67-4.31,1.53-1.84,3.13-3.62,4.71-5.41l2.38-2.69c.29-.32.58-.64.87-.95.52-.56,1.04-1.12,1.56-1.69l2.43-2.64,1.22-1.32,1.24-1.3,4.97-5.18,5.07-5.1,5.15-5.02c8.92-8.55,18.19-16.76,27.76-24.64,3.66-3.02,7.37-5.98,11.12-8.9,1.67-1.3,3.34-2.59,5.03-3.87,7.69-5.84,15.56-11.45,23.56-16.91l3.01-2.04,3.03-2c2.02-1.34,4.07-2.64,6.1-3.97,1.01-.67,2.04-1.32,3.06-1.96l3.08-1.94,6.21-3.81c8.31-5.06,16.78-9.89,25.37-14.55,8.62-4.62,17.34-9.09,26.31-13.18-4.84.98-9.61,2.29-14.37,3.66v-.04Z"/>
    </clipPath>
    <linearGradient id="linear-gradient-5" x1="-598.99" y1="138.8" x2="-598.44" y2="138.8" gradientTransform="translate(-485562.04 112874.35) rotate(-180) scale(811.56)" xlink:href="#linear-gradient-2"/>
    <clipPath id="clippath-5">
      <path class="cls-4" d="M115.46,196.29l1.98,3.16c.65,1.06,1.35,2.08,1.99,3.14,1.28,2.13,2.65,4.17,3.92,6.28.63,1.06,1.29,2.09,1.93,3.14l.97,1.56.94,1.58c5.09,8.35,9.94,16.72,14.51,25.16,2.23,4.25,4.48,8.47,6.55,12.76,1.08,2.12,2.06,4.29,3.1,6.42.52,1.07.98,2.16,1.48,3.23.49,1.08,1.01,2.15,1.47,3.24.47,1.08.94,2.17,1.43,3.25.48,1.08.92,2.18,1.38,3.27.93,2.17,1.78,4.37,2.66,6.55.83,2.21,1.71,4.39,2.48,6.61.84,2.2,1.57,4.43,2.35,6.65,5.99,17.81,10.17,36.14,12.33,54.92,1.06,9.39,1.66,18.89,1.7,28.49.02,4.8-.08,9.63-.35,14.5-.14,2.43-.3,4.87-.53,7.32-.21,2.45-.47,4.9-.81,7.38,1.39-2.11,2.54-4.37,3.65-6.63,1.08-2.28,2.08-4.61,2.98-6.96.93-2.35,1.72-4.75,2.49-7.17.76-2.41,1.44-4.86,2.05-7.31,1.23-4.92,2.16-9.91,2.84-14.95.69-5.04,1.11-10.11,1.29-15.2.36-10.18-.3-20.42-1.84-30.53-.77-5.05-1.76-10.08-2.98-15.05-.28-1.25-.64-2.48-.96-3.72l-.5-1.85-.53-1.84c-.7-2.46-1.5-4.89-2.28-7.33-6.51-19.42-16.29-37.66-28.4-53.99-6.08-8.15-12.77-15.83-19.96-22.96l-1.35-1.34-1.38-1.31c-.93-.87-1.84-1.74-2.78-2.59-.92-.86-1.89-1.69-2.83-2.53-.14-.13-.29-.25-.44-.38l-2.06-.92c-1.01-.44-2-.93-2.99-1.41l-2.97-1.44-2.56-1.25s.03.04.04.06h0Z"/>
    </clipPath>
    <linearGradient id="linear-gradient-6" x1="-598.99" y1="138.84" x2="-598.44" y2="138.84" gradientTransform="translate(-485552.35 112973.94) rotate(-180) scale(811.56)" gradientUnits="userSpaceOnUse">
      <stop offset="0" stop-color="#b1cf39"/>
      <stop offset="0" stop-color="#b1cf39"/>
      <stop offset=".29" stop-color="#b2ce37"/>
      <stop offset=".39" stop-color="#b9cd31"/>
      <stop offset=".46" stop-color="#c5cb28"/>
      <stop offset=".52" stop-color="#d6c71a"/>
      <stop offset=".57" stop-color="#ecc309"/>
      <stop offset=".58" stop-color="#f1c305"/>
      <stop offset="1" stop-color="#c425ff"/>
    </linearGradient>
    <clipPath id="clippath-6">
      <path class="cls-4" d="M28.51,132.73l2.33,2.31c.39.38.78.77,1.18,1.14l1.21,1.11,4.85,4.43,1.22,1.11,1.25,1.06,2.51,2.12,2.51,2.12,1.26,1.06,1.29,1.03c1.72,1.37,3.46,2.71,5.19,4.06l1.3,1.02,1.33.97,2.66,1.95c3.52,2.65,7.21,5.05,10.86,7.53.91.63,1.85,1.2,2.78,1.8l2.8,1.76,2.81,1.76c.94.59,1.9,1.12,2.85,1.69l5.73,3.33,5.84,3.15c.98.52,1.94,1.06,2.93,1.55l.4.2,2.56,1.28,2.97,1.47c.99.49,1.98.99,2.99,1.44l2.06.94,3.98,1.82c1,.47,2.03.89,3.05,1.33l3.06,1.29,3.07,1.28c1.03.42,2.06.81,3.09,1.21l3.1,1.2c1.04.39,2.06.81,3.11,1.17l6.27,2.22,1.57.54,1.58.51,3.17,1.02,3.17,1.02c1.06.33,2.13.62,3.19.93,2.13.61,4.25,1.25,6.39,1.83l6.44,1.67c1.07.29,2.15.53,3.23.78l3.24.75c8.64,1.95,17.35,3.63,26.12,4.87l1.64.25,1.65.21,3.29.42,3.29.42,3.3.35c4.4.49,8.8.85,13.21,1.18,8.82.6,17.65.89,26.46.88,1.95,0,3.91-.02,5.86-.05,3.8-6.15,7.8-12.18,11.98-18.08-5.85-.03-11.69-.14-17.52-.37-8.44-.33-16.86-.83-25.26-1.58l-6.29-.61-1.57-.15-1.57-.18-3.13-.37-3.14-.36-3.13-.42-3.13-.42-1.56-.21-1.56-.24-6.24-.94-6.21-1.07-1.55-.26-1.55-.3-3.09-.59-3.1-.59-3.08-.65c-8.23-1.67-16.39-3.69-24.49-5.91l-3.04-.84-1.52-.42-1.51-.46-6.04-1.81c-2.01-.62-3.99-1.31-6-1.94-1-.33-2-.64-3-.97l-2.97-1.05c-7.96-2.72-15.79-5.81-23.56-9.09l-5.81-2.51-5.75-2.65c-.96-.45-1.93-.86-2.88-1.33l-2.84-1.4-2.85-1.39c-.95-.47-1.91-.91-2.85-1.41l-5.64-2.94c-1.9-.95-3.71-2.04-5.59-3.04l-2.8-1.53-1.4-.77-1.37-.81c-1.84-1.08-3.66-2.16-5.51-3.23l-1.39-.8-1.36-.84-2.72-1.68-2.73-1.69-1.37-.84-1.34-.87-5.39-3.5-1.35-.88-1.33-.91-2.66-1.81c-7.15-4.79-14.04-9.97-21.08-15.1,5.52,6.7,11.34,13.22,17.62,19.3l.02.02Z"/>
    </clipPath>
    <linearGradient id="linear-gradient-7" x1="-598.99" y1="138.99" x2="-598.44" y2="138.99" gradientTransform="translate(-485617.41 112965.31) rotate(-180) scale(811.56)" gradientUnits="userSpaceOnUse">
      <stop offset="0" stop-color="#b1cf39"/>
      <stop offset="0" stop-color="#b1cf39"/>
      <stop offset=".29" stop-color="#b2ce37"/>
      <stop offset=".39" stop-color="#b9cd31"/>
      <stop offset=".46" stop-color="#c5cb28"/>
      <stop offset=".52" stop-color="#d6c71a"/>
      <stop offset=".57" stop-color="#ecc309"/>
      <stop offset=".58" stop-color="#f1c305"/>
      <stop offset="1" stop-color="#c425ff"/>
    </linearGradient>
  </defs>
  <g class="cls-16">
    <rect class="cls-14" x="86.05" y="465.79" width="222.79" height="222.1" transform="translate(-247.7 160.22) rotate(-28)"/>
  </g>
  <g class="cls-7">
    <rect class="cls-3" x="144.7" y="493.75" width="404.14" height="437.23" transform="translate(-293.85 246.18) rotate(-28)"/>
  </g>
  <g class="cls-13">
    <rect class="cls-6" x="86.05" y="-17.21" width="222.79" height="222.1" transform="translate(-20.94 103.68) rotate(-28)"/>
  </g>
  <g class="cls-10">
    <rect class="cls-5" x="255.81" y="74.79" width="117" height="114.9" transform="translate(-25.29 163.04) rotate(-28)"/>
  </g>
  <g class="cls-2">
    <rect class="cls-8" x="144.7" y="10.75" width="404.14" height="437.23" transform="translate(-67.09 189.64) rotate(-28)"/>
  </g>
  <g class="cls-9">
    <rect class="cls-12" x="70.94" y="190.32" width="166.11" height="220.48" transform="translate(-123.08 107.48) rotate(-28)"/>
  </g>
  <g class="cls-1">
    <rect class="cls-11" x="1.77" y="60.05" width="271.03" height="208.64" transform="translate(-61.1 83.69) rotate(-28)"/>
  </g>
  <g>
    <path class="cls-15" d="M373.99,162.26v24.8h-7.92c.15-8.19-.29-16.97.22-24.8h7.7Z"/>
    <path class="cls-15" d="M379.93,162.48c2.34-.51,5.64-.07,8.36-.22,3.17,7.44,6.26,14.97,9.68,22.17,2.44.28,3.11-2.27,3.3-4.17.5-5.01-.38-12.85,0-18h7.7c-.4,11.75,2.75,27.04-9.02,27.44,2.92,6.45,5.73,13.02,8.8,19.32-8.36.51-17.67.07-26.39.22v-5.93h15.18c-5.19-13.41-11.73-27.36-17.6-40.82h0Z"/>
    <path class="cls-15" d="M414.24,162.26c8.07.12,15.1-.62,18.7,3.73,3.5,4.24,3.08,12.42,3.08,20.19v23.05h-7.92v-21.73c0-6.64,1.17-16.02-3.3-18.44-2.68-1.45-6.63-.26-11-.66v-5.49c0-.38.16-.57.44-.66h0Z"/>
    <path class="cls-15" d="M443.71,162.26h7.7c3.58,7.98,7.37,15.77,11.22,23.49,6.13-1.76,2.54-15.67,3.52-23.49h7.7c-.55,9.99,1.99,21.92-3.96,26.56-1.35,1.05-2.94,1.44-4.84,2.41,2.94,5.85,5.62,11.95,8.58,17.78-2.05.51-5.06.07-7.48.22-4.65-8.46-8.46-17.75-12.76-26.56-3.05,2.11-1.98,7.71-1.98,12.29v14.27h-7.7c1.09-11.79-3.67-29.42,7.04-31.61-1.97-5.49-4.84-10.1-7.04-15.36Z"/>
    <path class="cls-15" d="M482.65,162.26c9.25.27,18.9-1.27,22.21,4.39,1.08,1.85,1.59,5.11,1.76,7.9.62,9.92-.47,24.85,0,34.68h-7.7v-21.51c0-6.13,1.4-16.32-2.64-18.66-3.26-1.88-8.85.04-13.86-.66v-5.49c-.02-.31-.04-.62.22-.66h.01Z"/>
    <path class="cls-15" d="M552.37,162.26v6.15h-4.4v40.83h-7.92v-40.83h-13.2c.15-1.98-.29-4.53.22-6.15h25.3Z"/>
    <path class="cls-15" d="M560.51,162.26h7.48v46.97h-7.7v-46.31c-.02-.31-.04-.62.22-.66h0Z"/>
    <path class="cls-15" d="M589.1,162.26c1.79,15.63,3.63,31.21,5.28,46.97h-7.48c-.1-3.34-.6-6.28-.88-9.44-1.88,5.37-4.47,10.03-12.32,9.44v-7.24c16.88.85,9.13-22.1,8.58-33.58h-5.06v-6.15h11.88,0Z"/>
    <path class="cls-15" d="M608.24,162.26v24.8h-7.92c.14-8.19-.29-16.97.22-24.8h7.7Z"/>
    <path class="cls-15" d="M616.38,162.26h7.7c3.58,7.98,7.36,15.77,11.22,23.49,6.12-1.76,2.54-15.67,3.52-23.49h7.7c-.55,9.99,2,21.92-3.96,26.56-1.35,1.05-2.94,1.44-4.84,2.41,2.94,5.85,5.62,11.95,8.58,17.78-2.05.51-5.06.07-7.48.22-4.65-8.46-8.46-17.75-12.76-26.56-3.05,2.11-1.98,7.71-1.98,12.29v14.27h-7.7c1.09-11.79-3.67-29.42,7.04-31.61-1.97-5.49-4.84-10.1-7.04-15.36Z"/>
    <path class="cls-15" d="M655.31,162.26c9.26.27,18.9-1.27,22.21,4.39,1.08,1.85,1.59,5.11,1.76,7.9.62,9.92-.47,24.85,0,34.68h-7.7v-21.51c0-6.13,1.4-16.32-2.64-18.66-3.26-1.88-8.85.04-13.86-.66v-5.49c-.02-.31-.04-.62.22-.66h.01Z"/>
    <path class="cls-15" d="M489.91,180.26c.51,9.22.07,19.39.22,28.97h-7.92c.15-9.58-.29-19.75.22-28.97h7.48Z"/>
    <path class="cls-15" d="M662.57,180.26c.51,9.22.07,19.39.22,28.97h-7.92c.15-9.58-.29-19.75.22-28.97h7.48Z"/>
    <path class="cls-15" d="M439.98,243.69v9.66h15.4c-3.07,15.96-6.89,31.16-10.12,46.97h-7.7c2.82-13.72,5.9-27.18,8.8-40.83h-13.42c.15-5.19-.29-10.97.22-15.8h6.82Z"/>
    <path class="cls-15" d="M567.99,243.69v9.66h15.4c-3.07,15.96-6.9,31.16-10.12,46.97h-7.7c2.82-13.72,5.9-27.18,8.8-40.83h-13.42c.15-5.19-.29-10.97.22-15.8h6.82Z"/>
    <path class="cls-15" d="M686.32,243.69v9.66h15.4c-3.07,15.96-6.89,31.16-10.12,46.97h-7.7c2.82-13.72,5.9-27.18,8.8-40.83h-13.42c.15-5.19-.29-10.97.22-15.8h6.82Z"/>
    <path class="cls-15" d="M373.55,300.32h-7.7v-21.29c0-8.74,2.24-21.5-8.58-19.54-.51,13.17-.07,27.29-.22,40.83h-13.86v-5.93h5.94c.51-11.12.07-23.19.22-34.68-.59-.5-2.12-.08-3.08-.22.14-1.98-.29-4.53.22-6.15,9.32.44,18.94-1.48,23.54,3.51,3.79,4.12,3.52,12.3,3.52,19.97v23.49h0Z"/>
    <path class="cls-15" d="M383.23,253.35h7.48v46.97h-7.7v-46.31c-.02-.31-.04-.62.22-.66Z"/>
    <path class="cls-15" d="M425.24,253.35c-.46,9.47.6,25.21,0,36-.44,7.88-3.64,12.07-13.2,10.97v-5.93c7.55,1.47,5.5-10.77,5.5-16.9v-17.78c-5.35-.51-11.66-.07-17.38-.22.15-1.98-.29-4.53.22-6.15h24.86Z"/>
    <path class="cls-15" d="M462.85,253.35c9.16.38,18.38-1.37,22.87,3.51,3.79,4.12,3.52,12.3,3.52,19.97v23.49h-7.7v-19.98c0-7.72,1.27-18.02-3.08-20.19-2.23-1.11-4.86-.44-8.14-.66v40.83h-7.7v-46.31c-.02-.31-.04-.62.22-.66h.01Z"/>
    <path class="cls-15" d="M523.78,300.32h-13.64v-5.93h5.72c-.4-7.37,1.25-21.22.22-28.97-.49-3.68-2.77-6.27-7.26-5.93-2.09,13.21-3.21,27.37-5.06,40.83h-7.7c1.45-13.7,3.28-27.02,4.84-40.61-.96-.51-2.86-.08-4.18-.22.15-1.98-.29-4.53.22-6.15,9.5.47,19.52-1.63,23.76,3.95,3.38,4.46,3.08,12.32,3.08,19.97v23.05h0Z"/>
    <path class="cls-15" d="M553.91,253.35v24.8h-7.92c.15-8.19-.29-16.97.22-24.8h7.7Z"/>
    <path class="cls-15" d="M590.64,253.35c9.25.27,18.9-1.27,22.22,4.39,1.08,1.85,1.59,5.11,1.76,7.9.62,9.92-.47,24.85,0,34.68h-7.7v-21.51c0-6.13,1.4-16.32-2.64-18.66-3.26-1.88-8.85.04-13.86-.66v-5.49c-.02-.31-.04-.62.22-.66h0Z"/>
    <path class="cls-15" d="M637.49,253.35c-.78,10.94,1.03,27.38,0,38.41-.73,7.78-6.15,9.43-15.62,8.56v-5.93c2.27-.14,4.49.33,6.16-.66,3.17-1.88,1.76-11.37,1.76-16.24v-17.78c-1.32-.51-3.59-.08-5.28-.22.14-1.98-.29-4.53.22-6.15h12.76Z"/>
    <path class="cls-15" d="M672.9,300.32h-13.64v-5.93h5.72c-.4-7.37,1.25-21.22.22-28.97-.49-3.68-2.77-6.27-7.26-5.93-2.09,13.21-3.21,27.37-5.06,40.83h-7.7c1.45-13.7,3.28-27.02,4.84-40.61-.96-.51-2.86-.08-4.18-.22.14-1.98-.29-4.53.22-6.15,9.5.47,19.52-1.63,23.76,3.95,3.38,4.46,3.08,12.32,3.08,19.97v23.05h0Z"/>
    <path class="cls-15" d="M400.38,270.47h7.48v41.48h-7.7c.15-13.75-.29-28.09.22-41.48Z"/>
    <path class="cls-15" d="M597.9,271.35c.51,9.22.07,19.39.22,28.97h-7.92c.15-9.59-.29-19.75.22-28.97h7.48Z"/>
    <path class="cls-15" d="M361.45,334.78v9.66h15.4c-3.07,15.96-6.89,31.16-10.12,46.97h-7.7c2.82-13.72,5.9-27.18,8.8-40.83h-13.42c.15-5.2-.29-10.97.22-15.8h6.82Z"/>
    <path class="cls-15" d="M382.79,344.44h7.7c3.58,7.98,7.36,15.77,11.22,23.49,6.12-1.76,2.54-15.68,3.52-23.49h7.7c-.55,9.99,2,21.92-3.96,26.56-1.35,1.05-2.94,1.44-4.84,2.41,2.94,5.85,5.62,11.95,8.58,17.78-2.05.51-5.06.07-7.48.22-4.65-8.46-8.46-17.75-12.76-26.56-3.05,2.11-1.98,7.71-1.98,12.29v14.27h-7.7c1.09-11.79-3.67-29.42,7.04-31.61-1.97-5.5-4.84-10.1-7.04-15.37h0Z"/>
    <path class="cls-15" d="M418.2,344.44c8.07.12,15.1-.62,18.7,3.73,3.49,4.24,3.08,12.42,3.08,20.19v23.05h-7.92v-21.73c0-6.64,1.17-16.02-3.3-18.44-2.68-1.45-6.63-.26-11-.66v-5.49c0-.38.16-.57.44-.66h0Z"/>
    <path class="cls-15" d="M447.01,344.44h7.48c.88,13.83,2.03,27.39,3.08,41.04,8.07.28,13.29-.15,15.4-5.71,3.16-8.34-.56-25.37.88-35.34h7.7c-1.32,16.6,3.9,37.4-6.82,44.56-5.33,3.56-15.12,2.14-24.42,2.41-1.01-15.6-2.47-30.75-3.52-46.31-.02-.31-.04-.62.22-.66h0Z"/>
    <path class="cls-15" d="M468.57,344.44v30.95h-7.7c.15-10.24-.29-21.07.22-30.95h7.48Z"/>
    <path class="cls-15" d="M497.82,344.44v24.8h-7.92c.15-8.19-.29-16.97.22-24.8h7.7Z"/>
    <path class="cls-15" d="M523.78,344.44v40.83c1.28.48,3.42.1,5.06.22v5.93h-24.85v-5.93h12.1v-34.9h-11.88c.15-1.98-.29-4.53.22-6.15h19.36,0Z"/>
    <path class="cls-15" d="M545.77,344.44c8.07.12,15.1-.62,18.7,3.73,3.5,4.24,3.08,12.42,3.08,20.19v23.05h-7.92v-21.73c0-6.64,1.17-16.02-3.3-18.44-2.68-1.45-6.63-.26-11-.66v-5.49c0-.38.16-.57.44-.66h0Z"/>
    <path class="cls-15" d="M582.72,344.44c1.17,13.31,2.62,26.35,3.74,39.73,3.37-.78,5.77-2.66,6.16-6.8.86-9.12-.65-23.58,0-32.92h7.7c-.38,9.4.5,21.61,0,30.73-.82,14.77-14.29,15.02-26.39,18.88-.18-2.23-1.18-3.65-1.32-5.93,2.28-.43,4.2-1.22,6.38-1.76-1.21-14.16-2.74-27.99-4.18-41.92h7.92,0Z"/>
    <path class="cls-15" d="M610,344.44h7.48v46.97h-7.7v-46.31c-.02-.31-.04-.62.22-.66h0Z"/>
    <path class="cls-15" d="M640.57,344.44c-.78,10.94,1.03,27.38,0,38.41-.73,7.78-6.15,9.43-15.62,8.56v-5.93c2.27-.14,4.5.33,6.16-.66,3.17-1.88,1.76-11.37,1.76-16.24v-17.78c-1.32-.51-3.59-.08-5.28-.22.15-1.98-.29-4.53.22-6.15h12.76Z"/>
    <path class="cls-15" d="M650.69,344.44c9.25.27,18.9-1.27,22.21,4.39,1.08,1.85,1.59,5.11,1.76,7.9.62,9.92-.47,24.85,0,34.68h-7.7v-21.51c0-6.13,1.4-16.32-2.64-18.66-3.26-1.88-8.85.04-13.86-.66v-5.49c-.02-.31-.04-.62.22-.66h.01Z"/>
    <path class="cls-15" d="M657.95,362.44c.51,9.22.07,19.39.22,28.97h-7.92c.15-9.58-.29-19.75.22-28.97h7.48Z"/>
  </g>
</svg>